<?xml version="1.0" standalone="no"?>
<!DOCTYPE svg PUBLIC "-//W3C//DTD SVG 20010904//EN"
 "http://www.w3.org/TR/2001/REC-SVG-20010904/DTD/svg10.dtd">
<svg version="1.0" xmlns="http://www.w3.org/2000/svg"
 width="2000.000000pt" height="2000.000000pt" viewBox="0 0 2000.000000 2000.000000"
 preserveAspectRatio="xMidYMid meet">

<g transform="translate(0.000000,2000.000000) scale(0.100000,-0.100000)"
fill="#000000" stroke="none">
<path d="M11400 17543 c-391 -26 -658 -59 -960 -119 -730 -144 -1487 -412
-2271 -804 -807 -405 -1617 -969 -2274 -1586 -783 -736 -1374 -1510 -1792
-2347 -53 -106 -110 -212 -128 -237 -218 -306 -444 -684 -609 -1020 -565
-1147 -760 -2324 -576 -3466 59 -364 169 -767 307 -1119 66 -169 108 -254 178
-360 218 -328 478 -530 847 -658 15 -5 15 -10 2 -54 -75 -242 -85 -632 -23
-938 93 -462 303 -851 630 -1171 190 -184 336 -283 634 -429 932 -457 1920
-717 2955 -776 229 -13 862 -7 1075 10 868 71 1751 246 2613 517 708 223 1448
605 2107 1087 931 682 1691 1555 2228 2562 527 985 835 2100 917 3315 26 395
22 990 -10 1365 -5 61 -14 187 -20 280 -21 328 -69 638 -151 967 -88 353 -239
773 -338 940 -123 208 -316 422 -487 538 l-81 55 -37 160 c-21 88 -54 207 -73
265 -46 142 -148 345 -232 461 l-70 96 20 63 c62 200 42 449 -55 679 -162 384
-526 727 -1046 987 -1009 503 -2014 750 -3015 742 -121 -1 -240 -3 -265 -5z
m-2695 -2873 c3 -5 1 -10 -4 -10 -6 0 -11 5 -11 10 0 6 2 10 4 10 3 0 8 -4 11
-10z m5045 -1914 c0 -3 -4 -8 -10 -11 -5 -3 -10 -1 -10 4 0 6 5 11 10 11 6 0
10 -2 10 -4z m-1680 -3126 c0 -5 -5 -10 -11 -10 -5 0 -7 5 -4 10 3 6 8 10 11
10 2 0 4 -4 4 -10z"/>
</g>
</svg>
